<svg width="96" height="96" viewBox="0 0 96 96" fill="none" xmlns="http://www.w3.org/2000/svg">
  <circle cx="48" cy="48" r="28" fill="#14181F"/>
  <path d="M48 30c-10 0-18 8-18 18 0 8 5 14 12 17 1 .2 1.3-.5 1.3-1v-4c-5 1-6.2-2.2-6.2-2.2-.8-2.2-2-2.8-2-2.8-1.8-1.2.1-1.2.1-1.2 2 .2 3.1 2 3.1 2 1.7 3 4.6 2.2 5.7 1.7.2-1.3.7-2.2 1.2-2.7-4-.5-8.1-2-8.1-9 0-2 .7-3.6 2-4.9-.2-.5-.9-2.4.2-4.9 0 0 1.6-.5 5.2 1.9 1.5-.4 3.1-.6 4.7-.6 1.6 0 3.2.2 4.7.6 3.6-2.4 5.2-1.9 5.2-1.9 1 2.5.4 4.4.2 4.9 1.2 1.3 2 3 2 4.9 0 7-4.2 8.5-8.1 9 .7.6 1.3 1.8 1.3 3.7v5.4c0 .6.4 1.3 1.3 1 7-2.4 12-9 12-17 0-10-8-18-18-18z" fill="#fff"/>
</svg>
